<mxfile host="app.diagrams.net" agent="Mozilla/5.0 (Windows NT 10.0; Win64; x64) AppleWebKit/537.36 (KHTML, like Gecko) Chrome/131.0.0.0 Safari/537.36" version="25.0.3">
  <diagram name="Page-1" id="CoJCcRXeSYhIrlJ4eU85">
    <mxGraphModel dx="536" dy="283" grid="1" gridSize="10" guides="1" tooltips="1" connect="1" arrows="1" fold="1" page="1" pageScale="1" pageWidth="850" pageHeight="1100" math="0" shadow="0">
      <root>
        <mxCell id="0" />
        <mxCell id="1" parent="0" />
        <mxCell id="beabnoLTbBQnCnWti_x1-3" value="" style="edgeStyle=orthogonalEdgeStyle;rounded=0;orthogonalLoop=1;jettySize=auto;html=1;" edge="1" parent="1" source="beabnoLTbBQnCnWti_x1-1" target="beabnoLTbBQnCnWti_x1-2">
          <mxGeometry relative="1" as="geometry" />
        </mxCell>
        <mxCell id="beabnoLTbBQnCnWti_x1-1" value="เรื่ม" style="strokeWidth=2;html=1;shape=mxgraph.flowchart.start_1;whiteSpace=wrap;" vertex="1" parent="1">
          <mxGeometry x="370" y="20" width="100" height="60" as="geometry" />
        </mxCell>
        <mxCell id="beabnoLTbBQnCnWti_x1-5" value="" style="edgeStyle=orthogonalEdgeStyle;rounded=0;orthogonalLoop=1;jettySize=auto;html=1;" edge="1" parent="1" source="beabnoLTbBQnCnWti_x1-2">
          <mxGeometry relative="1" as="geometry">
            <mxPoint x="420" y="300" as="targetPoint" />
          </mxGeometry>
        </mxCell>
        <mxCell id="beabnoLTbBQnCnWti_x1-2" value="กำหนดตัวแปร" style="whiteSpace=wrap;html=1;strokeWidth=2;" vertex="1" parent="1">
          <mxGeometry x="360" y="160" width="120" height="60" as="geometry" />
        </mxCell>
        <mxCell id="beabnoLTbBQnCnWti_x1-6" value="รับจำนวนแถวและคอลัม1" style="shape=parallelogram;perimeter=parallelogramPerimeter;whiteSpace=wrap;html=1;fixedSize=1;strokeWidth=2;" vertex="1" parent="1">
          <mxGeometry x="335" y="300" width="170" height="60" as="geometry" />
        </mxCell>
        <mxCell id="beabnoLTbBQnCnWti_x1-16" value="" style="edgeStyle=orthogonalEdgeStyle;rounded=0;orthogonalLoop=1;jettySize=auto;html=1;" edge="1" parent="1" target="beabnoLTbBQnCnWti_x1-23">
          <mxGeometry relative="1" as="geometry">
            <mxPoint x="415" y="360" as="sourcePoint" />
          </mxGeometry>
        </mxCell>
        <mxCell id="beabnoLTbBQnCnWti_x1-17" value="" style="edgeStyle=orthogonalEdgeStyle;rounded=0;orthogonalLoop=1;jettySize=auto;html=1;" edge="1" parent="1" source="beabnoLTbBQnCnWti_x1-23" target="beabnoLTbBQnCnWti_x1-20">
          <mxGeometry relative="1" as="geometry" />
        </mxCell>
        <mxCell id="beabnoLTbBQnCnWti_x1-18" style="edgeStyle=orthogonalEdgeStyle;rounded=0;orthogonalLoop=1;jettySize=auto;html=1;entryX=0;entryY=0.5;entryDx=0;entryDy=0;entryPerimeter=0;exitX=0.5;exitY=1;exitDx=0;exitDy=0;" edge="1" parent="1" source="beabnoLTbBQnCnWti_x1-24" target="beabnoLTbBQnCnWti_x1-23">
          <mxGeometry relative="1" as="geometry">
            <mxPoint x="405" y="390" as="targetPoint" />
            <mxPoint x="420" y="776.828380766369" as="sourcePoint" />
            <Array as="points">
              <mxPoint x="415" y="730" />
              <mxPoint x="290" y="730" />
              <mxPoint x="290" y="400" />
            </Array>
          </mxGeometry>
        </mxCell>
        <mxCell id="beabnoLTbBQnCnWti_x1-19" value="" style="edgeStyle=orthogonalEdgeStyle;rounded=0;orthogonalLoop=1;jettySize=auto;html=1;" edge="1" parent="1" source="beabnoLTbBQnCnWti_x1-20" target="beabnoLTbBQnCnWti_x1-24">
          <mxGeometry relative="1" as="geometry" />
        </mxCell>
        <mxCell id="beabnoLTbBQnCnWti_x1-25" style="edgeStyle=orthogonalEdgeStyle;rounded=0;orthogonalLoop=1;jettySize=auto;html=1;" edge="1" parent="1" source="beabnoLTbBQnCnWti_x1-20">
          <mxGeometry relative="1" as="geometry">
            <mxPoint x="420" y="780" as="targetPoint" />
            <Array as="points">
              <mxPoint x="511" y="510" />
              <mxPoint x="511" y="750" />
              <mxPoint x="420" y="750" />
            </Array>
          </mxGeometry>
        </mxCell>
        <mxCell id="beabnoLTbBQnCnWti_x1-20" value="กรอกค่าอาเรย์1ครบไหม" style="rhombus;whiteSpace=wrap;html=1;strokeWidth=2;" vertex="1" parent="1">
          <mxGeometry x="340" y="440" width="150" height="140" as="geometry" />
        </mxCell>
        <mxCell id="beabnoLTbBQnCnWti_x1-21" value="ไม่ใช่" style="text;html=1;align=center;verticalAlign=middle;whiteSpace=wrap;rounded=0;" vertex="1" parent="1">
          <mxGeometry x="330" y="550" width="60" height="30" as="geometry" />
        </mxCell>
        <mxCell id="beabnoLTbBQnCnWti_x1-22" value="ใช่" style="text;html=1;align=center;verticalAlign=middle;whiteSpace=wrap;rounded=0;" vertex="1" parent="1">
          <mxGeometry x="460" y="470" width="60" height="30" as="geometry" />
        </mxCell>
        <mxCell id="beabnoLTbBQnCnWti_x1-23" value="" style="verticalLabelPosition=bottom;verticalAlign=top;html=1;shape=mxgraph.flowchart.on-page_reference;" vertex="1" parent="1">
          <mxGeometry x="405" y="390" width="20" height="20" as="geometry" />
        </mxCell>
        <mxCell id="beabnoLTbBQnCnWti_x1-24" value="กรอกค่าอาเรย์" style="shape=parallelogram;perimeter=parallelogramPerimeter;whiteSpace=wrap;html=1;fixedSize=1;strokeWidth=2;" vertex="1" parent="1">
          <mxGeometry x="355" y="630" width="120" height="60" as="geometry" />
        </mxCell>
        <mxCell id="beabnoLTbBQnCnWti_x1-55" style="edgeStyle=orthogonalEdgeStyle;rounded=0;orthogonalLoop=1;jettySize=auto;html=1;" edge="1" parent="1" source="beabnoLTbBQnCnWti_x1-26" target="beabnoLTbBQnCnWti_x1-37">
          <mxGeometry relative="1" as="geometry" />
        </mxCell>
        <mxCell id="beabnoLTbBQnCnWti_x1-26" value="รับจำนวนแถวและคอลัม2" style="shape=parallelogram;perimeter=parallelogramPerimeter;whiteSpace=wrap;html=1;fixedSize=1;strokeWidth=2;" vertex="1" parent="1">
          <mxGeometry x="335" y="780" width="170" height="60" as="geometry" />
        </mxCell>
        <mxCell id="beabnoLTbBQnCnWti_x1-38" style="edgeStyle=orthogonalEdgeStyle;rounded=0;orthogonalLoop=1;jettySize=auto;html=1;" edge="1" parent="1" source="beabnoLTbBQnCnWti_x1-37">
          <mxGeometry relative="1" as="geometry">
            <mxPoint x="432.02" y="1250" as="targetPoint" />
            <Array as="points">
              <mxPoint x="523.02" y="980" />
              <mxPoint x="523.02" y="1190" />
              <mxPoint x="432.02" y="1190" />
            </Array>
          </mxGeometry>
        </mxCell>
        <mxCell id="beabnoLTbBQnCnWti_x1-42" value="" style="edgeStyle=orthogonalEdgeStyle;rounded=0;orthogonalLoop=1;jettySize=auto;html=1;" edge="1" parent="1" source="beabnoLTbBQnCnWti_x1-37">
          <mxGeometry relative="1" as="geometry">
            <mxPoint x="422.02" y="1100" as="targetPoint" />
          </mxGeometry>
        </mxCell>
        <mxCell id="beabnoLTbBQnCnWti_x1-37" value="ถ้าแถวของอาเรย์ตรงกับคอลัมอาเรย์" style="rhombus;whiteSpace=wrap;html=1;strokeWidth=2;" vertex="1" parent="1">
          <mxGeometry x="345" y="910" width="150" height="140" as="geometry" />
        </mxCell>
        <mxCell id="beabnoLTbBQnCnWti_x1-39" value="ใช่" style="text;html=1;align=center;verticalAlign=middle;whiteSpace=wrap;rounded=0;" vertex="1" parent="1">
          <mxGeometry x="482.02" y="950" width="60" height="30" as="geometry" />
        </mxCell>
        <mxCell id="beabnoLTbBQnCnWti_x1-40" value="ไม่ใช่" style="text;html=1;align=center;verticalAlign=middle;whiteSpace=wrap;rounded=0;" vertex="1" parent="1">
          <mxGeometry x="347.02" y="1030" width="60" height="30" as="geometry" />
        </mxCell>
        <mxCell id="beabnoLTbBQnCnWti_x1-43" value="กำหนดตัวแปรอาเรย์2และอาเรย์ที่เอาว้ตอบ" style="whiteSpace=wrap;html=1;strokeWidth=2;" vertex="1" parent="1">
          <mxGeometry x="372.02" y="1250" width="120" height="60" as="geometry" />
        </mxCell>
        <mxCell id="beabnoLTbBQnCnWti_x1-44" value="หาไม่ได้" style="shape=parallelogram;html=1;strokeWidth=2;perimeter=parallelogramPerimeter;whiteSpace=wrap;rounded=1;arcSize=12;size=0.23;" vertex="1" parent="1">
          <mxGeometry x="365" y="1100" width="100" height="60" as="geometry" />
        </mxCell>
        <mxCell id="beabnoLTbBQnCnWti_x1-45" value="" style="edgeStyle=orthogonalEdgeStyle;rounded=0;orthogonalLoop=1;jettySize=auto;html=1;" edge="1" parent="1" target="beabnoLTbBQnCnWti_x1-53">
          <mxGeometry relative="1" as="geometry">
            <mxPoint x="432.02" y="1310" as="sourcePoint" />
          </mxGeometry>
        </mxCell>
        <mxCell id="beabnoLTbBQnCnWti_x1-46" value="" style="edgeStyle=orthogonalEdgeStyle;rounded=0;orthogonalLoop=1;jettySize=auto;html=1;" edge="1" parent="1" source="beabnoLTbBQnCnWti_x1-53" target="beabnoLTbBQnCnWti_x1-50">
          <mxGeometry relative="1" as="geometry" />
        </mxCell>
        <mxCell id="beabnoLTbBQnCnWti_x1-47" style="edgeStyle=orthogonalEdgeStyle;rounded=0;orthogonalLoop=1;jettySize=auto;html=1;entryX=0;entryY=0.5;entryDx=0;entryDy=0;entryPerimeter=0;exitX=0.5;exitY=1;exitDx=0;exitDy=0;" edge="1" parent="1" source="beabnoLTbBQnCnWti_x1-54" target="beabnoLTbBQnCnWti_x1-53">
          <mxGeometry relative="1" as="geometry">
            <mxPoint x="422.02" y="1340" as="targetPoint" />
            <mxPoint x="437.02" y="1726.8283807663693" as="sourcePoint" />
            <Array as="points">
              <mxPoint x="432.02" y="1680" />
              <mxPoint x="307.02" y="1680" />
              <mxPoint x="307.02" y="1350" />
            </Array>
          </mxGeometry>
        </mxCell>
        <mxCell id="beabnoLTbBQnCnWti_x1-48" value="" style="edgeStyle=orthogonalEdgeStyle;rounded=0;orthogonalLoop=1;jettySize=auto;html=1;" edge="1" parent="1" source="beabnoLTbBQnCnWti_x1-50" target="beabnoLTbBQnCnWti_x1-54">
          <mxGeometry relative="1" as="geometry" />
        </mxCell>
        <mxCell id="beabnoLTbBQnCnWti_x1-49" style="edgeStyle=orthogonalEdgeStyle;rounded=0;orthogonalLoop=1;jettySize=auto;html=1;entryX=0.5;entryY=0;entryDx=0;entryDy=0;entryPerimeter=0;" edge="1" parent="1" source="beabnoLTbBQnCnWti_x1-50" target="beabnoLTbBQnCnWti_x1-64">
          <mxGeometry relative="1" as="geometry">
            <mxPoint x="437" y="1730" as="targetPoint" />
            <Array as="points">
              <mxPoint x="528" y="1460" />
              <mxPoint x="528" y="1700" />
              <mxPoint x="435" y="1700" />
            </Array>
          </mxGeometry>
        </mxCell>
        <mxCell id="beabnoLTbBQnCnWti_x1-50" value="กรอกค่าอาเรย์2ครบไหม" style="rhombus;whiteSpace=wrap;html=1;strokeWidth=2;" vertex="1" parent="1">
          <mxGeometry x="357.02" y="1390" width="150" height="140" as="geometry" />
        </mxCell>
        <mxCell id="beabnoLTbBQnCnWti_x1-51" value="ไม่ใช่" style="text;html=1;align=center;verticalAlign=middle;whiteSpace=wrap;rounded=0;" vertex="1" parent="1">
          <mxGeometry x="347.02" y="1500" width="60" height="30" as="geometry" />
        </mxCell>
        <mxCell id="beabnoLTbBQnCnWti_x1-52" value="ใช่" style="text;html=1;align=center;verticalAlign=middle;whiteSpace=wrap;rounded=0;" vertex="1" parent="1">
          <mxGeometry x="477.02" y="1420" width="60" height="30" as="geometry" />
        </mxCell>
        <mxCell id="beabnoLTbBQnCnWti_x1-53" value="" style="verticalLabelPosition=bottom;verticalAlign=top;html=1;shape=mxgraph.flowchart.on-page_reference;" vertex="1" parent="1">
          <mxGeometry x="422.02" y="1340" width="20" height="20" as="geometry" />
        </mxCell>
        <mxCell id="beabnoLTbBQnCnWti_x1-54" value="กรอกค่าอาเรย์" style="shape=parallelogram;perimeter=parallelogramPerimeter;whiteSpace=wrap;html=1;fixedSize=1;strokeWidth=2;" vertex="1" parent="1">
          <mxGeometry x="372.02" y="1580" width="120" height="60" as="geometry" />
        </mxCell>
        <mxCell id="beabnoLTbBQnCnWti_x1-57" value="" style="edgeStyle=orthogonalEdgeStyle;rounded=0;orthogonalLoop=1;jettySize=auto;html=1;" edge="1" parent="1" source="beabnoLTbBQnCnWti_x1-64" target="beabnoLTbBQnCnWti_x1-61">
          <mxGeometry relative="1" as="geometry" />
        </mxCell>
        <mxCell id="beabnoLTbBQnCnWti_x1-58" style="edgeStyle=orthogonalEdgeStyle;rounded=0;orthogonalLoop=1;jettySize=auto;html=1;entryX=0;entryY=0.5;entryDx=0;entryDy=0;entryPerimeter=0;exitX=0.5;exitY=1;exitDx=0;exitDy=0;" edge="1" parent="1" source="beabnoLTbBQnCnWti_x1-65" target="beabnoLTbBQnCnWti_x1-64">
          <mxGeometry relative="1" as="geometry">
            <mxPoint x="425.02" y="1750" as="targetPoint" />
            <mxPoint x="440.02" y="2136.8283807663693" as="sourcePoint" />
            <Array as="points">
              <mxPoint x="435.02" y="2090" />
              <mxPoint x="310.02" y="2090" />
              <mxPoint x="310.02" y="1760" />
            </Array>
          </mxGeometry>
        </mxCell>
        <mxCell id="beabnoLTbBQnCnWti_x1-59" value="" style="edgeStyle=orthogonalEdgeStyle;rounded=0;orthogonalLoop=1;jettySize=auto;html=1;" edge="1" parent="1" source="beabnoLTbBQnCnWti_x1-61" target="beabnoLTbBQnCnWti_x1-65">
          <mxGeometry relative="1" as="geometry" />
        </mxCell>
        <mxCell id="beabnoLTbBQnCnWti_x1-60" style="edgeStyle=orthogonalEdgeStyle;rounded=0;orthogonalLoop=1;jettySize=auto;html=1;" edge="1" parent="1" source="beabnoLTbBQnCnWti_x1-61">
          <mxGeometry relative="1" as="geometry">
            <mxPoint x="440.02" y="2140" as="targetPoint" />
            <Array as="points">
              <mxPoint x="531.02" y="1870" />
              <mxPoint x="531.02" y="2110" />
              <mxPoint x="440.02" y="2110" />
            </Array>
          </mxGeometry>
        </mxCell>
        <mxCell id="beabnoLTbBQnCnWti_x1-61" value="แสดงค่าอาเรย์1ครบไหม" style="rhombus;whiteSpace=wrap;html=1;strokeWidth=2;" vertex="1" parent="1">
          <mxGeometry x="360.02" y="1800" width="150" height="140" as="geometry" />
        </mxCell>
        <mxCell id="beabnoLTbBQnCnWti_x1-62" value="ไม่ใช่" style="text;html=1;align=center;verticalAlign=middle;whiteSpace=wrap;rounded=0;" vertex="1" parent="1">
          <mxGeometry x="350.02" y="1910" width="60" height="30" as="geometry" />
        </mxCell>
        <mxCell id="beabnoLTbBQnCnWti_x1-63" value="ใช่" style="text;html=1;align=center;verticalAlign=middle;whiteSpace=wrap;rounded=0;" vertex="1" parent="1">
          <mxGeometry x="480.02" y="1830" width="60" height="30" as="geometry" />
        </mxCell>
        <mxCell id="beabnoLTbBQnCnWti_x1-64" value="" style="verticalLabelPosition=bottom;verticalAlign=top;html=1;shape=mxgraph.flowchart.on-page_reference;" vertex="1" parent="1">
          <mxGeometry x="425.02" y="1750" width="20" height="20" as="geometry" />
        </mxCell>
        <mxCell id="beabnoLTbBQnCnWti_x1-65" value="แสดงค่าอาเรย์" style="shape=parallelogram;perimeter=parallelogramPerimeter;whiteSpace=wrap;html=1;fixedSize=1;strokeWidth=2;" vertex="1" parent="1">
          <mxGeometry x="375.02" y="1990" width="120" height="60" as="geometry" />
        </mxCell>
        <mxCell id="beabnoLTbBQnCnWti_x1-66" value="" style="edgeStyle=orthogonalEdgeStyle;rounded=0;orthogonalLoop=1;jettySize=auto;html=1;" edge="1" parent="1" source="beabnoLTbBQnCnWti_x1-73" target="beabnoLTbBQnCnWti_x1-70">
          <mxGeometry relative="1" as="geometry" />
        </mxCell>
        <mxCell id="beabnoLTbBQnCnWti_x1-67" style="edgeStyle=orthogonalEdgeStyle;rounded=0;orthogonalLoop=1;jettySize=auto;html=1;entryX=0;entryY=0.5;entryDx=0;entryDy=0;entryPerimeter=0;exitX=0.5;exitY=1;exitDx=0;exitDy=0;" edge="1" parent="1" source="beabnoLTbBQnCnWti_x1-74" target="beabnoLTbBQnCnWti_x1-73">
          <mxGeometry relative="1" as="geometry">
            <mxPoint x="432.03" y="2140" as="targetPoint" />
            <mxPoint x="447.03" y="2526.8283807663693" as="sourcePoint" />
            <Array as="points">
              <mxPoint x="442.03" y="2480" />
              <mxPoint x="317.03" y="2480" />
              <mxPoint x="317.03" y="2150" />
            </Array>
          </mxGeometry>
        </mxCell>
        <mxCell id="beabnoLTbBQnCnWti_x1-68" value="" style="edgeStyle=orthogonalEdgeStyle;rounded=0;orthogonalLoop=1;jettySize=auto;html=1;" edge="1" parent="1" source="beabnoLTbBQnCnWti_x1-70" target="beabnoLTbBQnCnWti_x1-74">
          <mxGeometry relative="1" as="geometry" />
        </mxCell>
        <mxCell id="beabnoLTbBQnCnWti_x1-69" style="edgeStyle=orthogonalEdgeStyle;rounded=0;orthogonalLoop=1;jettySize=auto;html=1;" edge="1" parent="1" source="beabnoLTbBQnCnWti_x1-70">
          <mxGeometry relative="1" as="geometry">
            <mxPoint x="447.03" y="2530" as="targetPoint" />
            <Array as="points">
              <mxPoint x="538.03" y="2260" />
              <mxPoint x="538.03" y="2500" />
              <mxPoint x="447.03" y="2500" />
            </Array>
          </mxGeometry>
        </mxCell>
        <mxCell id="beabnoLTbBQnCnWti_x1-70" value="แสดงค่าอาเรย์2ครบไหม" style="rhombus;whiteSpace=wrap;html=1;strokeWidth=2;" vertex="1" parent="1">
          <mxGeometry x="367.03" y="2190" width="150" height="140" as="geometry" />
        </mxCell>
        <mxCell id="beabnoLTbBQnCnWti_x1-71" value="ไม่ใช่" style="text;html=1;align=center;verticalAlign=middle;whiteSpace=wrap;rounded=0;" vertex="1" parent="1">
          <mxGeometry x="357.03" y="2300" width="60" height="30" as="geometry" />
        </mxCell>
        <mxCell id="beabnoLTbBQnCnWti_x1-72" value="ใช่" style="text;html=1;align=center;verticalAlign=middle;whiteSpace=wrap;rounded=0;" vertex="1" parent="1">
          <mxGeometry x="487.03" y="2220" width="60" height="30" as="geometry" />
        </mxCell>
        <mxCell id="beabnoLTbBQnCnWti_x1-73" value="" style="verticalLabelPosition=bottom;verticalAlign=top;html=1;shape=mxgraph.flowchart.on-page_reference;" vertex="1" parent="1">
          <mxGeometry x="432.03" y="2140" width="20" height="20" as="geometry" />
        </mxCell>
        <mxCell id="beabnoLTbBQnCnWti_x1-74" value="แสดงค่าอาเรย์" style="shape=parallelogram;perimeter=parallelogramPerimeter;whiteSpace=wrap;html=1;fixedSize=1;strokeWidth=2;" vertex="1" parent="1">
          <mxGeometry x="382.03" y="2380" width="120" height="60" as="geometry" />
        </mxCell>
        <mxCell id="beabnoLTbBQnCnWti_x1-77" value="" style="edgeStyle=orthogonalEdgeStyle;rounded=0;orthogonalLoop=1;jettySize=auto;html=1;" edge="1" parent="1" source="beabnoLTbBQnCnWti_x1-75" target="beabnoLTbBQnCnWti_x1-76">
          <mxGeometry relative="1" as="geometry" />
        </mxCell>
        <mxCell id="beabnoLTbBQnCnWti_x1-75" value="คูณอาเรย์" style="whiteSpace=wrap;html=1;strokeWidth=2;" vertex="1" parent="1">
          <mxGeometry x="382.03" y="2530" width="120" height="60" as="geometry" />
        </mxCell>
        <mxCell id="beabnoLTbBQnCnWti_x1-79" value="" style="edgeStyle=orthogonalEdgeStyle;rounded=0;orthogonalLoop=1;jettySize=auto;html=1;" edge="1" parent="1" source="beabnoLTbBQnCnWti_x1-76" target="beabnoLTbBQnCnWti_x1-78">
          <mxGeometry relative="1" as="geometry" />
        </mxCell>
        <mxCell id="beabnoLTbBQnCnWti_x1-76" value="แสดงผลลัพธ์อาเรย์" style="shape=parallelogram;perimeter=parallelogramPerimeter;whiteSpace=wrap;html=1;fixedSize=1;strokeWidth=2;" vertex="1" parent="1">
          <mxGeometry x="382.03" y="2670" width="120" height="60" as="geometry" />
        </mxCell>
        <mxCell id="beabnoLTbBQnCnWti_x1-78" value="จบ" style="strokeWidth=2;html=1;shape=mxgraph.flowchart.start_1;whiteSpace=wrap;" vertex="1" parent="1">
          <mxGeometry x="392.03" y="2810" width="100" height="60" as="geometry" />
        </mxCell>
      </root>
    </mxGraphModel>
  </diagram>
</mxfile>
